<svg width="8" height="6" viewBox="0 0 8 6" fill="none" xmlns="http://www.w3.org/2000/svg">
<path fill-rule="evenodd" clip-rule="evenodd" d="M4.60637 5.90612C4.66975 5.96623 4.75567 6 4.84525 6C4.93483 6 5.02075 5.96623 5.08413 5.90612L7.90114 3.231C7.96444 3.1708 8 3.08921 8 3.00414C8 2.91908 7.96444 2.83749 7.90114 2.77729L5.08413 0.102172C5.05319 0.0706323 5.01587 0.0453354 4.9744 0.02779C4.93293 0.0102447 4.88817 0.000810458 4.84278 4.99595e-05C4.79739 -0.000710539 4.75231 0.00721827 4.71022 0.0233636C4.66812 0.0395089 4.62989 0.0635399 4.59779 0.094023C4.56569 0.124506 4.54038 0.160817 4.52338 0.200788C4.50638 0.24076 4.49803 0.283575 4.49883 0.326678C4.49963 0.369781 4.50957 0.412289 4.52804 0.451666C4.54652 0.491044 4.57316 0.526484 4.60637 0.555873L6.84645 2.68313H0.338041C0.248387 2.68313 0.162405 2.71695 0.0990098 2.77715C0.0356149 2.83736 0 2.91901 0 3.00414C0 3.08928 0.0356149 3.17093 0.0990098 3.23114C0.162405 3.29134 0.248387 3.32516 0.338041 3.32516H6.84645L4.60637 5.45242C4.54306 5.51261 4.50751 5.5942 4.50751 5.67927C4.50751 5.76434 4.54306 5.84593 4.60637 5.90612V5.90612Z" fill="black" fill-opacity="0.54"/>
</svg>
